<svg xmlns="http://www.w3.org/2000/svg" viewBox="0 0 24 24" fill='currentColor'><path d="M3.75,12.5 C3.75,11.4665 4.59075,10.625 5.625,10.625 C6.65925,10.625 7.5,11.4665 7.5,12.5 C7.5,13.5343 6.65925,14.375 5.625,14.375 C4.59075,14.375 3.75,13.5343 3.75,12.5 Z M16.5,18.875 C16.5,17.8407 17.3407,17 18.375,17 C19.4093,17 20.25,17.8407 20.25,18.875 C20.25,19.9093 19.4093,20.75 18.375,20.75 C17.3407,20.75 16.5,19.9093 16.5,18.875 Z M16.5,6.125 C16.5,5.0915 17.3407,4.25 18.375,4.25 C19.4093,4.25 20.25,5.0915 20.25,6.125 C20.25,7.1585 19.4093,8 18.375,8 C17.3407,8 16.5,7.1585 16.5,6.125 Z M2.25,12.5 C2.25,14.3638 3.76125,15.875 5.625,15.875 C6.612,15.875 7.49175,15.4437 8.109,14.768 L15.0638,18.245 C15.0248,18.4497 15,18.659 15,18.875 C15,20.7388 16.5112,22.25 18.375,22.25 C20.2388,22.25 21.75,20.7388 21.75,18.875 C21.75,17.0112 20.2388,15.5 18.375,15.5 C17.2642,15.5 16.287,16.0445 15.672,16.8725 L8.84475,13.4585 C8.93625,13.1532 9,12.8352 9,12.5 C9,12.1648 8.93625,11.8468 8.84475,11.5415 L15.672,8.1275 C16.287,8.95625 17.2642,9.5 18.375,9.5 C20.2388,9.5 21.75,7.98875 21.75,6.125 C21.75,4.26125 20.2388,2.75 18.375,2.75 C16.5112,2.75 15,4.26125 15,6.125 C15,6.341 15.0248,6.55025 15.0638,6.75425 L8.109,10.232 C7.49175,9.55625 6.612,9.125 5.625,9.125 C3.76125,9.125 2.25,10.6363 2.25,12.5 Z"></path></svg>